<?xml version="1.0" encoding="UTF-8"?>
<svg xmlns="http://www.w3.org/2000/svg" xmlns:xlink="http://www.w3.org/1999/xlink" width="286pt" height="286pt" viewBox="0 0 286 286" version="1.1">
<g id="surface1">
<path style="fill:none;stroke-width:0.99214;stroke-linecap:butt;stroke-linejoin:miter;stroke:rgb(0%,0%,0%);stroke-opacity:1;stroke-miterlimit:10;" d="M -140.904063 0.00046875 L 140.904531 0.00046875 " transform="matrix(1,0,0,-1,143.49,143.395)"/>
<path style="fill:none;stroke-width:0.7937;stroke-linecap:round;stroke-linejoin:round;stroke:rgb(0%,0%,0%);stroke-opacity:1;stroke-miterlimit:10;" d="M -1.731126 2.308125 C -1.586595 1.440937 -0.0006575 0.144062 0.432936 -0.00046875 C -0.0006575 -0.145 -1.586595 -1.441875 -1.731126 -2.305156 " transform="matrix(-1,0,0,1,2.58528,143.395)"/>
<path style="fill:none;stroke-width:0.7937;stroke-linecap:round;stroke-linejoin:round;stroke:rgb(0%,0%,0%);stroke-opacity:1;stroke-miterlimit:10;" d="M -1.730658 2.305156 C -1.586126 1.441875 -0.00018875 0.145 0.433405 0.00046875 C -0.00018875 -0.144062 -1.586126 -1.440937 -1.730658 -2.308125 " transform="matrix(1,0,0,-1,284.39472,143.395)"/>
<path style="fill:none;stroke-width:0.99214;stroke-linecap:butt;stroke-linejoin:miter;stroke:rgb(0%,0%,0%);stroke-opacity:1;stroke-miterlimit:10;" d="M -0.00171875 -140.905781 L -0.00171875 140.902813 " transform="matrix(1,0,0,-1,143.49,143.395)"/>
<path style="fill:none;stroke-width:0.7937;stroke-linecap:round;stroke-linejoin:round;stroke:rgb(0%,0%,0%);stroke-opacity:1;stroke-miterlimit:10;" d="M -1.729407 2.306875 C -1.584876 1.439687 0.00106125 0.142812 0.430749 -0.00171875 C 0.00106125 -0.142344 -1.584876 -1.443125 -1.729407 -2.306406 " transform="matrix(0,1,1,0,143.49,284.29972)"/>
<path style="fill:none;stroke-width:0.7937;stroke-linecap:round;stroke-linejoin:round;stroke:rgb(0%,0%,0%);stroke-opacity:1;stroke-miterlimit:10;" d="M -1.72847 2.306406 C -1.583939 1.443125 -0.0019075 0.142344 0.431686 0.00171875 C -0.0019075 -0.142812 -1.583939 -1.439687 -1.72847 -2.306875 " transform="matrix(0,-1,-1,0,143.49,2.49028)"/>
<path style="fill:none;stroke-width:2.12599;stroke-linecap:butt;stroke-linejoin:miter;stroke:rgb(100%,0%,0%);stroke-opacity:1;stroke-miterlimit:10;" d="M -141.732188 -56.694844 L 56.693594 141.734844 " transform="matrix(1,0,0,-1,143.49,143.395)"/>
</g>
</svg>
