<?xml version="1.0" encoding="UTF-8"?>
<svg xmlns="http://www.w3.org/2000/svg" xmlns:xlink="http://www.w3.org/1999/xlink" width="284pt" height="285pt" viewBox="0 0 284 285" version="1.1">
<g id="surface1">
<path style="fill:none;stroke-width:0.99214;stroke-linecap:butt;stroke-linejoin:miter;stroke:rgb(0%,0%,0%);stroke-opacity:1;stroke-miterlimit:10;" d="M -140.903469 0.00046875 L 140.905125 0.00046875 " transform="matrix(1,0,0,-1,141.923,142.395)"/>
<path style="fill:none;stroke-width:0.7937;stroke-linecap:round;stroke-linejoin:round;stroke:rgb(0%,0%,0%);stroke-opacity:1;stroke-miterlimit:10;" d="M -1.73172 2.308125 C -1.587189 1.440937 -0.00125125 0.144062 0.432343 -0.00046875 C -0.00125125 -0.145 -1.587189 -1.441875 -1.73172 -2.305156 " transform="matrix(-1,0,0,1,1.01828,142.395)"/>
<path style="fill:none;stroke-width:0.7937;stroke-linecap:round;stroke-linejoin:round;stroke:rgb(0%,0%,0%);stroke-opacity:1;stroke-miterlimit:10;" d="M -1.730064 2.305156 C -1.585532 1.441875 0.000405 0.145 0.433999 0.00046875 C 0.000405 -0.144062 -1.585532 -1.440937 -1.730064 -2.308125 " transform="matrix(1,0,0,-1,282.82772,142.395)"/>
<path style="fill:none;stroke-width:0.99214;stroke-linecap:butt;stroke-linejoin:miter;stroke:rgb(0%,0%,0%);stroke-opacity:1;stroke-miterlimit:10;" d="M -0.001125 -140.905781 L -0.001125 140.902813 " transform="matrix(1,0,0,-1,141.923,142.395)"/>
<path style="fill:none;stroke-width:0.7937;stroke-linecap:round;stroke-linejoin:round;stroke:rgb(0%,0%,0%);stroke-opacity:1;stroke-miterlimit:10;" d="M -1.729407 2.307469 C -1.584876 1.440281 0.00106125 0.143406 0.430749 -0.001125 C 0.00106125 -0.145656 -1.584876 -1.442531 -1.729407 -2.305813 " transform="matrix(0,1,1,0,141.923,283.29972)"/>
<path style="fill:none;stroke-width:0.7937;stroke-linecap:round;stroke-linejoin:round;stroke:rgb(0%,0%,0%);stroke-opacity:1;stroke-miterlimit:10;" d="M -1.72847 2.305813 C -1.583939 1.442531 -0.0019075 0.145656 0.431686 0.001125 C -0.0019075 -0.143406 -1.583939 -1.440281 -1.72847 -2.307469 " transform="matrix(0,-1,-1,0,141.923,1.49028)"/>
<path style="fill:none;stroke-width:2.12599;stroke-linecap:butt;stroke-linejoin:miter;stroke:rgb(0%,100%,0%);stroke-opacity:1;stroke-miterlimit:10;" d="M -85.040188 -141.733906 L -85.040188 141.734844 " transform="matrix(1,0,0,-1,141.923,142.395)"/>
</g>
</svg>
